<svg width="163" height="111" fill="none" xmlns="http://www.w3.org/2000/svg"><g filter="url(#filter0_d)"><path d="M105.505 10l10.309 10.728H50.542L60.852 10h44.653z" fill="#FF974D"/><path d="M105.505 10l10.309 10.728H50.542L60.852 10h44.653z" fill="#9FD92B"/><path d="M105.505 10l10.309 10.728H50.542L60.852 10h44.653z" fill="#92CC1F"/><path d="M105.505 10l10.309 10.728H50.542L60.852 10h44.653z" fill="#7DB312"/></g><path d="M50.644 48.94V20.73h65.323v28.21H163l-81.001 61.44L.998 48.94h49.646z" fill="#FF974D"/><path d="M50.644 48.94V20.73h65.323v28.21H163l-81.001 61.44L.998 48.94h49.646z" fill="#9FD92B"/><path d="M50.644 48.94V20.73h65.323v28.21H163l-81.001 61.44L.998 48.94h49.646z" fill="url(#paint0_linear)" style="mix-blend-mode:overlay"/><path d="M115.422 21.23H50.936" stroke="#fff" stroke-width=".786" opacity=".5"/><defs><linearGradient id="paint0_linear" x1="81.999" y1="110.38" x2="81.999" y2="1.799" gradientUnits="userSpaceOnUse"><stop stop-color="#4D4D4D"/><stop offset="1" stop-color="#999"/></linearGradient><filter id="filter0_d" x="42.678" y="10" width="81.001" height="26.457" filterUnits="userSpaceOnUse" color-interpolation-filters="sRGB"><feFlood flood-opacity="0" result="BackgroundImageFix"/><feColorMatrix in="SourceAlpha" values="0 0 0 0 0 0 0 0 0 0 0 0 0 0 0 0 0 0 127 0"/><feOffset dy="7.864"/><feGaussianBlur stdDeviation="3.932"/><feColorMatrix values="0 0 0 0 0.529412 0 0 0 0 0.752941 0 0 0 0 0.0784314 0 0 0 0.5 0"/><feBlend in2="BackgroundImageFix" result="effect1_dropShadow"/><feBlend in="SourceGraphic" in2="effect1_dropShadow" result="shape"/></filter></defs></svg>