<svg width="360" height="42" fill="none" xmlns="http://www.w3.org/2000/svg"><path d="M13.447 39.49c-.467.696-1.479 1.315-2.335 1.315H.917c-.856 0-1.167-.542-.7-1.237l12.841-18.324c.467-.696.467-1.856 0-2.551L1.618 2.456c-.467-.695-.156-1.237.7-1.237h10.818c.856 0 1.868.619 2.335 1.392l4.124 7.5c.39.773 1.09.773 1.479 0l4.125-7.5c.389-.773 1.478-1.392 2.334-1.392H37.65c.857 0 1.168.542.701 1.315L27.611 18.15c-.467.696-.467 1.856 0 2.552l12.841 18.865c.467.695.156 1.314-.7 1.314H29.168c-.856 0-1.868-.619-2.335-1.314l-5.681-9.974c-.39-.773-1.168-.773-1.557 0l-6.148 9.896zM204.04 1.22h8.638c.856 0 1.557.695 1.557 1.546v27.06c0 .85.7 1.546 1.556 1.546h5.915c.856 0 1.556-.696 1.556-1.546V2.766c0-.85.701-1.547 1.557-1.547h8.638c.856 0 1.557.696 1.557 1.547v27.06c0 .85.7 1.546 1.556 1.546h5.915c.856 0 1.556-.696 1.556-1.546V2.766c0-.85.701-1.547 1.557-1.547h8.638c.856 0 1.557.696 1.557 1.547v36.57c0 .85-.701 1.546-1.557 1.546h-50.119a1.556 1.556 0 01-1.556-1.546V2.766c0-.862.591-1.547 1.479-1.547zm121.406 0h32.998c.856 0 1.556.695 1.556 1.546v36.57c0 .85-.7 1.546-1.556 1.546h-8.639a1.556 1.556 0 01-1.556-1.546v-27.06c0-.851-.701-1.547-1.557-1.547h-9.572c-.856 0-1.557.696-1.557 1.546v27.06c0 1.072-.923 1.547-1.738 1.547h-8.535a1.556 1.556 0 01-1.556-1.546V2.766c0-.929.822-1.547 1.712-1.547z" fill="#000"/><path fill-rule="evenodd" clip-rule="evenodd" d="M69.073 42c14.056 0 21.548-9.458 21.548-21S83.055 0 69.073 0C54.572 0 47.377 9.402 47.377 21c0 13.18 8.975 21 21.696 21zM69 32.43c5.28 0 9.559-3.721 9.559-11.421 0-7.7-4.768-11.421-9.56-11.421-4.79 0-9.742 3.415-9.742 11.42 0 8.007 5.214 11.422 9.743 11.422zM168.174 42c14.055 0 21.547-9.458 21.547-21s-7.566-21-21.547-21c-14.502 0-21.696 9.402-21.696 21 0 13.18 8.975 21 21.696 21zm-.074-9.57c5.28 0 9.559-3.721 9.559-11.421 0-7.7-4.767-11.421-9.559-11.421-4.791 0-9.743 3.415-9.743 11.42 0 8.007 5.214 11.422 9.743 11.422zM290.298 42c14.055 0 21.547-9.458 21.547-21s-7.566-21-21.547-21c-14.502 0-21.697 9.402-21.697 21 0 13.18 8.975 21 21.697 21zm-.074-9.57c5.28 0 9.559-3.721 9.559-11.421 0-7.7-4.768-11.421-9.559-11.421-4.791 0-9.743 3.415-9.743 11.42 0 8.007 5.214 11.422 9.743 11.422z" fill="#000"/><path d="M103.49 2.766c0-.85.701-1.547 1.557-1.547h15.798c2.802 0 7.471.928 9.573 2.706 6.762 5.396 6.582 15.727.077 21.03-2.101 1.856-5.292 2.783-9.572 2.783h-4.047c-.856 0-1.556.696-1.556 1.547v9.973c0 .85-.701 1.547-1.557 1.547h-8.716a1.556 1.556 0 01-1.557-1.547V2.766zm11.83 14.768c0 .85.544 1.468 1.245 1.468.7 0 2.075-.082 2.879-.155.805-.072 1.677-.426 2.024-.618 2.295-1.274 2.419-5.177 1.096-6.804-.991-1.22-2.731-1.546-4.598-1.546h-1.09c-.856 0-1.556.696-1.556 1.546v6.109z" fill="#000"/></svg>