<svg width="226" height="59" fill="none" xmlns="http://www.w3.org/2000/svg"><path d="M23.777 58.661c-5.132-1.063-9.921-3.434-13.681-6.773C.444 43.316-2.54 29.848 2.56 17.866c1.252-2.942 3.288-5.929 5.81-8.523l2.224-2.287.157 13.387c.15 12.814.183 13.46.79 15.075 1.212 3.23 2.512 5.287 4.75 7.516 5.782 5.757 14.261 7.194 21.47 3.638 6.776-3.343 11.047-10.611 10.55-17.953-.333-4.932-1.991-8.548-5.572-12.151-2.707-2.725-5.893-4.504-9.36-5.23-3.53-.738-3.36-.846-3.36 2.14v2.579l1.934.356c7.492 1.38 12.447 8.737 10.885 16.162-.499 2.37-1.611 4.465-3.397 6.394-2.714 2.93-6.532 4.332-9.866 4.325-5.512-.01-10.115-3.143-12.346-7.775 0 0-.584-1.324-.772-2.142-1.105-4.812-.399-14.941-.399-14.941l-.085-14.81.874-.453c.48-.249.942-.452 1.025-.452.083 0 .188 6.802.233 15.117 0 0-1.061 10.898.25 15.075.19.603.55 1.633.55 1.633 1.15 2.343 2.993 4.405 5.388 5.54 1.818.86 2.734 1.25 5.424 1.25 1.757 0 3.314-.555 5.106-1.379 2.111-.97 4.534-3.546 5.43-5.897 2.466-6.478-.969-13.448-7.585-15.391-2.704-.794-2.65-.838-2.65 2.102v2.569l1.299.347c4.679 1.251 6.106 7.522 2.433 10.745-1.297 1.138-2.467 1.642-4.512 1.642-2.186 0-4.284-1.323-5.363-3.353a6.19 6.19 0 01-.702-2.904c0-4.892-.106-13.688-.106-13.688l-.088-15.09.672-.167c.37-.092 1.863-.319 3.318-.504 4.937-.63 12.24.985 17.147 3.792 6.689 3.828 11.75 10.402 13.858 18.002.725 2.614.806 3.374.806 7.579 0 4.186-.083 4.971-.793 7.528-2.866 10.329-10.157 17.712-20.583 20.844-2.194.659-3.221.785-7.093.867-3.124.067-5.15-.032-6.534-.319z" fill="#C60C30"/><path d="M224.854 27.4c.366.284.697.604 1.046.907V22.97c-2.092-1.334-4.375-1.761-6.763-1.317-4.862.908-7.878 5.017-7.599 10.247.262 4.786 2.754 8.148 6.867 9.144 2.597.623 5.125.356 7.495-.978v-5.337c-.436.338-.854.712-1.325.996-1.882 1.157-3.834 1.423-5.734.142-1.865-1.263-2.283-3.22-1.952-5.336.645-4.128 4.741-5.711 7.965-3.132zm-95.893 13.342h-4.985V22.116h4.845V32.95c.07.036.14.053.227.089 2.318-3.665 4.636-7.312 6.937-10.959h4.984v18.644h-4.827V29.908c-.088-.036-.157-.053-.244-.089-2.318 3.647-4.637 7.312-6.937 10.923zm51.118-18.608v10.834c.07.017.122.035.192.07 2.301-3.646 4.601-7.275 6.919-10.94h5.02v18.644h-4.88V29.926c-.07-.018-.14-.054-.227-.072-2.301 3.63-4.601 7.276-6.902 10.924h-4.967V22.15c1.551-.017 3.12-.017 4.845-.017zm-68.775 7.258c1.133 0 2.214-.09 3.277.018 1.22.142 2.492.302 3.642.73 1.97.746 2.894 2.347 2.981 4.482.087 2.242-.541 4.145-2.597 5.195-.906.462-1.97.836-2.981.872-3.102.106-6.204.035-9.376.035V22.098h13.455v4.376h-8.383c-.018.997-.018 1.886-.018 2.918zm-.017 7.738c1.22-.07 2.37-.053 3.468-.23.924-.143 1.342-.855 1.342-1.815 0-.961-.418-1.655-1.342-1.797-1.133-.178-2.283-.16-3.451-.231-.017 1.405-.017 2.65-.017 4.073z" fill="#000"/><path d="M195.416 22.098h5.02v7.507c.07.018.139.054.209.072.889-1.264 1.778-2.527 2.649-3.772.889-1.245 1.761-2.508 2.684-3.807h6.013c-2.352 3.06-4.618 6.013-6.919 9.02 2.353 3.184 4.689 6.333 7.094 9.606h-6.397c-1.69-2.544-3.398-5.141-5.106-7.72-.053.017-.122.035-.175.053v7.65h-5.054c-.018-6.156-.018-12.33-.018-18.61zm-36.861 18.626V22.151c.14-.035.279-.089.418-.089 2.737 0 5.456-.053 8.192.054 3.468.124 5.769 2.65 5.786 6.155.018 3.558-2.3 6.084-5.786 6.262-1.115.053-2.248.018-3.468.018v6.173h-5.142zm5.142-10.247c1.359-.089 2.806.41 3.695-1.014.488-.765.488-1.708-.07-2.437-.959-1.263-2.336-.783-3.625-.872v4.323zM91.628 23.04v5.267c-1.534-1.512-3.172-2.455-5.28-2.028-1.099.213-2.005.765-2.668 1.69-1.568 2.117-1.464 5.515.227 7.33 1.847 1.974 4.462 1.831 7.686-.463v5.123c-3.154 2.437-8.94 1.708-11.852-1.512-3.241-3.611-3.311-10.176-.121-13.858 2.928-3.38 8.522-4.128 12.008-1.548zm55.596 17.666V26.563h-4.008v-4.465h13.089v4.376h-3.922V40.69c-1.742.017-3.416.017-5.159.017zM66.512 22.08h7.46v18.627h-4.654V26.331h-2.806V22.08zm35.311 9.447c0 1.708-1.289 3.024-2.963 3.024-1.708 0-3.015-1.334-2.98-3.095.017-1.708 1.325-2.99 3.015-2.99 1.656.036 2.928 1.353 2.928 3.06z" fill="#000"/></svg>