<svg width="621" height="512" fill="none" xmlns="http://www.w3.org/2000/svg"><g filter="url(#filter0_d)"><path d="M38 390.832V183.168L186 100l148 83.168v208.773L186 474 38 390.832z" fill="url(#paint0_linear)"/></g><path d="M38.006 391.092v-1.659l147.901-83.33 147.901 83.33v2.77l-147.901 82.219-147.901-83.33z" fill="#EA80FF"/><path d="M38.006 391.092v-1.659l147.901-83.33 147.901 83.33v2.77l-147.901 82.219-147.901-83.33z" fill="url(#paint1_linear)" style="mix-blend-mode:soft-light"/><path d="M333.807 392.204l-147.901 82.218v-2.575l147.901-82.423v2.78z" fill="#000" opacity=".3"/><path d="M185.909 306.101l147.882 83.321-147.884 82.386L38 389.435l147.909-83.334z" fill="#fff" opacity=".3"/><mask id="a" maskUnits="userSpaceOnUse" x="38" y="306" width="296" height="166"><path d="M185.909 306.101l147.882 83.321-147.884 82.386L38 389.435l147.909-83.334z" fill="#fff" opacity=".5"/></mask><g mask="url(#a)"><g style="mix-blend-mode:overlay" filter="url(#filter1_f)"><path d="M185.909 289.903l147.882 83.322-147.884 82.385L38 373.238l147.909-83.335z" fill="#000"/></g><g style="mix-blend-mode:multiply" opacity=".3" filter="url(#filter2_f)"><path d="M185.909 289.903l147.882 83.322-147.884 82.385L38 373.238l147.909-83.335z" fill="#000" style="mix-blend-mode:multiply"/></g></g><g opacity=".8"><path d="M38.006 353.037v-1.659l147.901-83.33 147.901 83.33v2.77l-147.901 82.219-147.901-83.33z" fill="#EA80FF"/><path d="M38.006 353.037v-1.659l147.901-83.33 147.901 83.33v2.77l-147.901 82.219-147.901-83.33z" fill="url(#paint2_linear)" style="mix-blend-mode:soft-light"/><path d="M333.807 354.149l-147.901 82.218v-2.575l147.901-82.423v2.78z" fill="#000" opacity=".3"/><path d="M185.909 268.046l147.882 83.321-147.884 82.386L38 351.38l147.909-83.334z" fill="#fff" opacity=".3"/><mask id="b" maskUnits="userSpaceOnUse" x="38" y="268" width="296" height="166"><path d="M185.909 268.046l147.882 83.321-147.884 82.386L38 351.38l147.909-83.334z" fill="#fff" opacity=".5"/></mask><g mask="url(#b)"><g style="mix-blend-mode:overlay" filter="url(#filter3_f)"><path d="M185.909 251.848l147.882 83.322-147.884 82.386L38 335.183l147.909-83.335z" fill="#000"/></g><g style="mix-blend-mode:multiply" opacity=".3" filter="url(#filter4_f)"><path d="M185.909 251.848l147.882 83.322-147.884 82.386L38 335.183l147.909-83.335z" fill="#000" style="mix-blend-mode:multiply"/></g></g></g><g opacity=".8"><path d="M38.006 314.982v-1.659l147.901-83.33 147.901 83.33v2.77l-147.901 82.219-147.901-83.33z" fill="#EA80FF"/><path d="M38.006 314.982v-1.659l147.901-83.33 147.901 83.33v2.77l-147.901 82.219-147.901-83.33z" fill="url(#paint3_linear)" style="mix-blend-mode:soft-light"/><path d="M333.807 316.094l-147.901 82.218v-2.574l147.901-82.424v2.78z" fill="#000" opacity=".3"/><path d="M185.909 229.991l147.882 83.322-147.884 82.385L38 313.325l147.909-83.334z" fill="#fff" opacity=".3"/></g><path d="M320 230.832V33.168L468-50l148 83.168V231.94L468 314l-148-83.168z" fill="url(#paint4_linear)"/><path d="M320.006 230.601v-1.66l147.901-83.33 147.901 83.33v2.771l-147.901 82.219-147.901-83.33z" fill="#95E65C"/><path d="M320.006 230.601v-1.66l147.901-83.33 147.901 83.33v2.771l-147.901 82.219-147.901-83.33z" fill="url(#paint5_linear)" style="mix-blend-mode:soft-light"/><path d="M615.807 231.713l-147.901 82.218v-2.575l147.901-82.423v2.78z" fill="#000" opacity=".3"/><path d="M467.909 145.609l147.882 83.322-147.884 82.386L320 228.944l147.909-83.335z" fill="#fff" opacity=".3"/><mask id="c" maskUnits="userSpaceOnUse" x="320" y="145" width="296" height="167"><path d="M467.909 145.609l147.882 83.322-147.884 82.386L320 228.944l147.909-83.335z" fill="#fff" opacity=".5"/></mask><g mask="url(#c)"><g style="mix-blend-mode:overlay" filter="url(#filter5_f)"><path d="M467.909 129.412l147.882 83.322-147.884 82.385L320 212.746l147.909-83.334z" fill="#000"/></g><g style="mix-blend-mode:multiply" opacity=".3" filter="url(#filter6_f)"><path d="M467.909 129.412l147.882 83.322-147.884 82.385L320 212.746l147.909-83.334z" fill="#000" style="mix-blend-mode:multiply"/></g></g><g opacity=".8"><path d="M320.006 192.546v-1.66l147.901-83.33 147.901 83.33v2.771l-147.901 82.219-147.901-83.33z" fill="#95E65C"/><path d="M320.006 192.546v-1.66l147.901-83.33 147.901 83.33v2.771l-147.901 82.219-147.901-83.33z" fill="url(#paint6_linear)" style="mix-blend-mode:soft-light"/><path d="M615.807 193.658l-147.901 82.218v-2.575l147.901-82.424v2.781z" fill="#000" opacity=".3"/><path d="M467.909 107.555l147.882 83.321-147.884 82.386L320 190.889l147.909-83.334z" fill="#fff" opacity=".3"/><mask id="d" maskUnits="userSpaceOnUse" x="320" y="107" width="296" height="167"><path d="M467.909 107.555l147.882 83.321-147.884 82.386L320 190.889l147.909-83.334z" fill="#fff" opacity=".5"/></mask><g mask="url(#d)"><g style="mix-blend-mode:overlay" filter="url(#filter7_f)"><path d="M467.909 91.357l147.882 83.322-147.884 82.385L320 174.691l147.909-83.334z" fill="#000"/></g><g style="mix-blend-mode:multiply" opacity=".3" filter="url(#filter8_f)"><path d="M467.909 91.357l147.882 83.322-147.884 82.385L320 174.691l147.909-83.334z" fill="#000" style="mix-blend-mode:multiply"/></g></g></g><g opacity=".8"><path d="M320.006 154.491v-1.659l147.901-83.33 147.901 83.33v2.77l-147.901 82.219-147.901-83.33z" fill="#95E65C"/><path d="M320.006 154.491v-1.659l147.901-83.33 147.901 83.33v2.77l-147.901 82.219-147.901-83.33z" fill="url(#paint7_linear)" style="mix-blend-mode:soft-light"/><path d="M615.807 155.603l-147.901 82.218v-2.575l147.901-82.423v2.78z" fill="#000" opacity=".3"/><path d="M467.909 69.5l147.882 83.321-147.884 82.386L320 152.834 467.909 69.5z" fill="#fff" opacity=".3"/></g><path d="M298.982 469.275a1.661 1.661 0 01.569-2.298l92.004-54.555a2.733 2.733 0 112.741 4.73l-93.079 52.7a1.661 1.661 0 01-2.235-.577z" fill="url(#paint8_linear)"/><path d="M522.982 360.275a1.661 1.661 0 01.569-2.298l92.004-54.555a2.733 2.733 0 112.741 4.73l-93.079 52.7a1.661 1.661 0 01-2.235-.577z" fill="url(#paint9_linear)"/><path d="M424.153 366.165a.98.98 0 01.335-1.349l53.527-31.979a1.588 1.588 0 012.201.586c.433.77.162 1.749-.605 2.187l-54.154 30.891a.965.965 0 01-1.304-.336z" fill="url(#paint10_linear)"/><path d="M46.982 276.275a1.661 1.661 0 01.57-2.298l92.003-54.555a2.733 2.733 0 112.741 4.73l-93.079 52.7a1.662 1.662 0 01-2.235-.577z" fill="url(#paint11_linear)"/><path d="M95.352 184.022a1.147 1.147 0 01.392-1.58l62.758-37.462a1.861 1.861 0 012.579.687c.508.902.19 2.049-.709 2.561L96.88 184.416a1.131 1.131 0 01-1.528-.394z" fill="url(#paint12_linear)"/><path d="M248.982 104.275a1.661 1.661 0 01.569-2.298l92.004-54.555a2.734 2.734 0 112.741 4.73l-93.079 52.7a1.661 1.661 0 01-2.235-.577z" fill="url(#paint13_linear)"/><path d="M230.352 164.022a1.147 1.147 0 01.392-1.58l62.758-37.462a1.861 1.861 0 012.579.687c.508.902.19 2.049-.709 2.561l-63.491 36.188c-.534.304-1.21.13-1.529-.394z" fill="url(#paint14_linear)"/><path d="M431.491 462.926a1.255 1.255 0 01.43-1.733l69.225-41.12a2.057 2.057 0 012.841.756 2.064 2.064 0 01-.778 2.809l-70.035 39.723c-.586.332-1.33.14-1.683-.435z" fill="url(#paint15_linear)"/><defs><linearGradient id="paint0_linear" x1="186" y1="160" x2="186" y2="474" gradientUnits="userSpaceOnUse"><stop offset=".391" stop-color="#EA80FF" stop-opacity="0"/><stop offset="1" stop-color="#EA80FF"/></linearGradient><linearGradient id="paint1_linear" x1="185.907" y1="474.422" x2="185.907" y2="-161.005" gradientUnits="userSpaceOnUse"><stop stop-color="#4D4D4D"/><stop offset="1" stop-color="#fff"/></linearGradient><linearGradient id="paint2_linear" x1="185.907" y1="436.367" x2="185.907" y2="-199.06" gradientUnits="userSpaceOnUse"><stop stop-color="#4D4D4D"/><stop offset="1" stop-color="#fff"/></linearGradient><linearGradient id="paint3_linear" x1="185.907" y1="398.312" x2="185.907" y2="-237.115" gradientUnits="userSpaceOnUse"><stop stop-color="#4D4D4D"/><stop offset="1" stop-color="#fff"/></linearGradient><linearGradient id="paint4_linear" x1="468" y1="0" x2="468" y2="314" gradientUnits="userSpaceOnUse"><stop offset=".391" stop-color="#95E55C" stop-opacity="0"/><stop offset="1" stop-color="#95E55C"/></linearGradient><linearGradient id="paint5_linear" x1="467.907" y1="313.931" x2="467.907" y2="-321.496" gradientUnits="userSpaceOnUse"><stop stop-color="#4D4D4D"/><stop offset="1" stop-color="#fff"/></linearGradient><linearGradient id="paint6_linear" x1="467.907" y1="275.876" x2="467.907" y2="-359.551" gradientUnits="userSpaceOnUse"><stop stop-color="#4D4D4D"/><stop offset="1" stop-color="#fff"/></linearGradient><linearGradient id="paint7_linear" x1="467.907" y1="237.821" x2="467.907" y2="-397.606" gradientUnits="userSpaceOnUse"><stop stop-color="#4D4D4D"/><stop offset="1" stop-color="#fff"/></linearGradient><linearGradient id="paint8_linear" x1="297.084" y1="465.972" x2="397.281" y2="411.344" gradientUnits="userSpaceOnUse"><stop stop-color="#7878EB" stop-opacity="0"/><stop offset=".927" stop-color="#79F285"/><stop offset="1" stop-color="#fff"/></linearGradient><linearGradient id="paint9_linear" x1="521.084" y1="356.972" x2="621.281" y2="302.344" gradientUnits="userSpaceOnUse"><stop stop-color="#7878EB" stop-opacity="0"/><stop offset=".927" stop-color="#79F285"/><stop offset="1" stop-color="#fff"/></linearGradient><linearGradient id="paint10_linear" x1="423.049" y1="364.228" x2="481.552" y2="332.571" gradientUnits="userSpaceOnUse"><stop stop-color="#7878EB" stop-opacity="0"/><stop offset=".927" stop-color="#79F285"/><stop offset="1" stop-color="#fff"/></linearGradient><linearGradient id="paint11_linear" x1="45.084" y1="272.972" x2="145.281" y2="218.344" gradientUnits="userSpaceOnUse"><stop stop-color="#7878EB" stop-opacity="0"/><stop offset=".927" stop-color="#79F285"/><stop offset="1" stop-color="#fff"/></linearGradient><linearGradient id="paint12_linear" x1="94.057" y1="181.753" x2="162.621" y2="144.62" gradientUnits="userSpaceOnUse"><stop stop-color="#7878EB" stop-opacity="0"/><stop offset=".927" stop-color="#79F285"/><stop offset="1" stop-color="#fff"/></linearGradient><linearGradient id="paint13_linear" x1="247.084" y1="100.972" x2="347.281" y2="46.344" gradientUnits="userSpaceOnUse"><stop stop-color="#7878EB" stop-opacity="0"/><stop offset=".927" stop-color="#79F285"/><stop offset="1" stop-color="#fff"/></linearGradient><linearGradient id="paint14_linear" x1="229.057" y1="161.753" x2="297.621" y2="124.62" gradientUnits="userSpaceOnUse"><stop stop-color="#7878EB" stop-opacity="0"/><stop offset=".927" stop-color="#79F285"/><stop offset="1" stop-color="#fff"/></linearGradient><linearGradient id="paint15_linear" x1="430.063" y1="460.436" x2="505.517" y2="419.372" gradientUnits="userSpaceOnUse"><stop stop-color="#7878EB" stop-opacity="0"/><stop offset=".927" stop-color="#79F285"/><stop offset="1" stop-color="#fff"/></linearGradient><filter id="filter0_d" x=".162" y="62.162" width="371.676" height="449.676" filterUnits="userSpaceOnUse" color-interpolation-filters="sRGB"><feFlood flood-opacity="0" result="BackgroundImageFix"/><feColorMatrix in="SourceAlpha" values="0 0 0 0 0 0 0 0 0 0 0 0 0 0 0 0 0 0 127 0"/><feOffset/><feGaussianBlur stdDeviation="18.919"/><feColorMatrix values="0 0 0 0 0.996078 0 0 0 0 0.596078 0 0 0 0 0.898039 0 0 0 1 0"/><feBlend mode="soft-light" in2="BackgroundImageFix" result="effect1_dropShadow"/><feBlend in="SourceGraphic" in2="effect1_dropShadow" result="shape"/></filter><filter id="filter1_f" x="17.436" y="269.339" width="336.92" height="206.836" filterUnits="userSpaceOnUse" color-interpolation-filters="sRGB"><feFlood flood-opacity="0" result="BackgroundImageFix"/><feBlend in="SourceGraphic" in2="BackgroundImageFix" result="shape"/><feGaussianBlur stdDeviation="10.282" result="effect1_foregroundBlur"/></filter><filter id="filter2_f" x="17.436" y="269.339" width="336.92" height="206.836" filterUnits="userSpaceOnUse" color-interpolation-filters="sRGB"><feFlood flood-opacity="0" result="BackgroundImageFix"/><feBlend in="SourceGraphic" in2="BackgroundImageFix" result="shape"/><feGaussianBlur stdDeviation="10.282" result="effect1_foregroundBlur"/></filter><filter id="filter3_f" x="17.436" y="231.284" width="336.92" height="206.836" filterUnits="userSpaceOnUse" color-interpolation-filters="sRGB"><feFlood flood-opacity="0" result="BackgroundImageFix"/><feBlend in="SourceGraphic" in2="BackgroundImageFix" result="shape"/><feGaussianBlur stdDeviation="10.282" result="effect1_foregroundBlur"/></filter><filter id="filter4_f" x="17.436" y="231.284" width="336.92" height="206.836" filterUnits="userSpaceOnUse" color-interpolation-filters="sRGB"><feFlood flood-opacity="0" result="BackgroundImageFix"/><feBlend in="SourceGraphic" in2="BackgroundImageFix" result="shape"/><feGaussianBlur stdDeviation="10.282" result="effect1_foregroundBlur"/></filter><filter id="filter5_f" x="299.436" y="108.848" width="336.92" height="206.836" filterUnits="userSpaceOnUse" color-interpolation-filters="sRGB"><feFlood flood-opacity="0" result="BackgroundImageFix"/><feBlend in="SourceGraphic" in2="BackgroundImageFix" result="shape"/><feGaussianBlur stdDeviation="10.282" result="effect1_foregroundBlur"/></filter><filter id="filter6_f" x="299.436" y="108.848" width="336.92" height="206.836" filterUnits="userSpaceOnUse" color-interpolation-filters="sRGB"><feFlood flood-opacity="0" result="BackgroundImageFix"/><feBlend in="SourceGraphic" in2="BackgroundImageFix" result="shape"/><feGaussianBlur stdDeviation="10.282" result="effect1_foregroundBlur"/></filter><filter id="filter7_f" x="299.436" y="70.793" width="336.92" height="206.836" filterUnits="userSpaceOnUse" color-interpolation-filters="sRGB"><feFlood flood-opacity="0" result="BackgroundImageFix"/><feBlend in="SourceGraphic" in2="BackgroundImageFix" result="shape"/><feGaussianBlur stdDeviation="10.282" result="effect1_foregroundBlur"/></filter><filter id="filter8_f" x="299.436" y="70.793" width="336.92" height="206.836" filterUnits="userSpaceOnUse" color-interpolation-filters="sRGB"><feFlood flood-opacity="0" result="BackgroundImageFix"/><feBlend in="SourceGraphic" in2="BackgroundImageFix" result="shape"/><feGaussianBlur stdDeviation="10.282" result="effect1_foregroundBlur"/></filter></defs></svg>