<svg width="227" height="44" fill="none" xmlns="http://www.w3.org/2000/svg"><path d="M22.5 22.938c0 3.38-1.007 6.228-3.03 8.533-2.112 2.416-4.856 3.628-8.215 3.628-3.368 0-6.103-1.212-8.215-3.628C1.016 29.166 0 26.318 0 22.938c0-3.39 1.016-6.237 3.04-8.534 2.135-2.393 4.88-3.589 8.215-3.589 3.359 0 6.103 1.196 8.214 3.589 2.024 2.297 3.032 5.143 3.032 8.534zm-6.687 0c0-1.532-.367-2.824-1.103-3.87-.824-1.187-1.976-1.777-3.455-1.777-1.48 0-2.632.59-3.456 1.778-.744 1.045-1.112 2.337-1.112 3.869 0 1.522.368 2.83 1.112 3.907.824 1.188 1.976 1.779 3.456 1.779s2.631-.591 3.455-1.78c.736-1.076 1.103-2.384 1.103-3.906zm30.868 0c0 3.158-.912 5.917-2.744 8.277C41.977 33.8 39.45 35.1 36.38 35.1c-2.168 0-4.008-.63-5.511-1.873 0 .286.032.98.096 2.09.064 1.115.095 2.024.095 2.742 0 3.965-1.184 5.942-3.55 5.942-.969 0-1.76-.343-2.393-1.021-.623-.685-.936-1.508-.936-2.48V14.715c0-.941.32-1.755.96-2.44.64-.678 1.432-1.02 2.376-1.02 1.423 0 2.464.708 3.12 2.12 1.4-1.706 3.311-2.56 5.735-2.56 3.08 0 5.599 1.276 7.566 3.836 1.824 2.37 2.744 5.129 2.744 8.287zm-6.687 0c0-1.532-.375-2.824-1.111-3.87-.825-1.187-1.976-1.777-3.456-1.777s-2.632.59-3.456 1.778c-.736 1.045-1.104 2.337-1.104 3.869 0 1.522.368 2.83 1.104 3.907.824 1.188 1.976 1.779 3.456 1.779s2.63-.591 3.456-1.78c.736-1.076 1.11-2.384 1.11-3.906zm31.02-.717c0 1.115-.265 1.88-.793 2.312-.528.422-1.351.637-2.463.637h-12.07c0 1.277.6 2.257 1.8 2.942.967.536 2.15.808 3.55.808 1.09 0 2.393-.36 3.92-1.07 1.528-.718 2.512-1.07 2.936-1.07.776 0 1.431.28 1.975.854a2.88 2.88 0 01.809 2.043c0 1.825-1.368 3.246-4.105 4.266-2.087.766-4.206 1.156-6.374 1.156-3.487 0-6.303-1.156-8.454-3.46-2.153-2.305-3.232-5.2-3.232-8.701 0-3.335 1.12-6.182 3.36-8.557 2.23-2.378 5.007-3.566 8.318-3.566 3.08 0 5.655 1.125 7.72 3.374 2.062 2.25 3.102 4.928 3.102 8.032zm-6.688-1.676c-.032-1.021-.503-1.946-1.415-2.784-.913-.837-1.88-1.251-2.904-1.251-1.056 0-2.04.414-2.952 1.25-.911.839-1.368 1.764-1.368 2.785h8.64zm29.156 10.614c0 .974-.312 1.795-.935 2.48-.633.68-1.425 1.022-2.392 1.022-2.336 0-3.504-1.85-3.504-5.543 0-.71.048-1.826.144-3.365.104-1.532.152-2.656.152-3.366 0-3.916-1.272-5.877-3.807-5.877-2.536 0-3.8 1.96-3.8 5.877 0 .71.04 1.834.112 3.366.08 1.54.12 2.655.12 3.365 0 3.693-1.152 5.543-3.455 5.543-.969 0-1.76-.343-2.384-1.021-.632-.686-.944-1.507-.944-2.481V14.708c0-.967.312-1.787.944-2.45.624-.67 1.424-1.003 2.392-1.003 1.6 0 2.71.708 3.335 2.12 1.08-1.706 2.991-2.56 5.727-2.56 2.536 0 4.552.67 6.032 2.001 1.511 1.43 2.263 3.39 2.263 5.887v12.456zm20.98-.709c0 1.507-.982 2.703-2.951 3.581a11.915 11.915 0 01-4.967 1.068c-3.368 0-6.103-1.212-8.215-3.628-2.024-2.305-3.04-5.153-3.04-8.533 0-3.39 1.033-6.253 3.104-8.598 2.071-2.352 4.783-3.525 8.151-3.525 1.944 0 3.615.287 5.008.854 1.943.765 2.91 1.961 2.91 3.588a3.35 3.35 0 01-.768 2.178c-.511.622-1.168.94-1.967.94-.545 0-1.329-.183-2.352-.54-1.024-.369-1.839-.544-2.438-.544-1.593 0-2.833.566-3.721 1.698-.824 1.021-1.24 2.33-1.24 3.949 0 1.522.368 2.815 1.113 3.86.822 1.22 1.984 1.826 3.463 1.826.656 0 1.551-.192 2.695-.583 1.145-.382 1.969-.581 2.48-.581.745 0 1.383.318 1.928.94.536.63.807 1.308.807 2.05zm24.309.709c0 .974-.312 1.795-.936 2.48-.632.68-1.431 1.022-2.401 1.022-1.455 0-2.494-.71-3.118-2.122-1.4 1.708-3.312 2.56-5.735 2.56-3.103 0-5.647-1.3-7.615-3.883-1.792-2.361-2.694-5.12-2.694-8.278 0-3.158.902-5.918 2.694-8.287 2-2.56 4.535-3.836 7.615-3.836 2.423 0 4.335.854 5.735 2.56.624-1.412 1.663-2.12 3.118-2.12.945 0 1.738.342 2.378 1.02a3.44 3.44 0 01.959 2.433v16.45zm-6.687-8.221c0-1.532-.367-2.824-1.104-3.87-.856-1.187-2.008-1.777-3.455-1.777-1.48 0-2.631.59-3.456 1.778-.743 1.045-1.11 2.337-1.11 3.869 0 1.522.358 2.83 1.069 3.907.849 1.188 2.017 1.779 3.497 1.779 1.479 0 2.631-.591 3.455-1.78.737-1.076 1.104-2.384 1.104-3.906zm23.749-8.67c0 1.427-.696 2.408-2.088 2.942-1.288.432-2.569.871-3.848 1.324-1.401.799-2.096 2.282-2.096 4.435v8.19c0 .974-.32 1.795-.943 2.48-.633.68-1.432 1.022-2.4 1.022-.975 0-1.776-.343-2.399-1.021-.633-.686-.944-1.507-.944-2.481V14.708c0-.967.311-1.787.935-2.45.632-.67 1.433-1.003 2.401-1.003 1.599 0 2.71.708 3.335 2.12 1.432-1.706 2.968-2.56 4.623-2.56.943 0 1.752.342 2.423 1.02.664.686 1.001 1.5 1.001 2.433zm17.445.303c0 1.483-.584 2.417-1.742 2.816-.57.2-1.763.302-3.578.302v13.47c0 .974-.32 1.795-.942 2.48-.634.68-1.433 1.022-2.401 1.022-.943 0-1.744-.343-2.385-1.021-.638-.686-.958-1.507-.958-2.481v-13.47c-1.376 0-2.376-.175-3.007-.517-.863-.479-1.29-1.348-1.29-2.6s.44-2.106 1.328-2.561c.6-.335 1.593-.51 2.969-.51V8.646c0-3.357 1.11-5.032 3.343-5.032 2.223 0 3.343 1.675 3.343 5.032v2.855c1.815 0 3.008.104 3.578.303 1.158.398 1.742 1.325 1.742 2.767zM227 10.521c-.018-2.046-3.812-2.976-13.633-2.976-23.044 0-28.89-.981-35.147-7.545 2.632 3.941 4.072 11.334 28.429 10.966 25.412-.39 9.909 6.533 5.399 14.355 8.134-7.239 14.927-12.01 14.952-14.77v-.03zm-32.382 21.022c-.001 1.902-1.57 3.468-3.479 3.468a3.477 3.477 0 01-3.487-3.468v-.003c0-1.906 1.573-3.475 3.485-3.475h.002a3.477 3.477 0 013.479 3.478zm15.87 0c-.001 1.902-1.571 3.468-3.48 3.468a3.478 3.478 0 01-3.486-3.468v-.003c0-1.906 1.573-3.475 3.484-3.475h.002a3.478 3.478 0 013.48 3.478z" fill="url(#paint0_linear)"/><defs><linearGradient id="paint0_linear" x1="113.5" y1="34.806" x2="113.5" y2="0" gradientUnits="userSpaceOnUse"><stop stop-color="#04B6F0"/><stop offset="1" stop-color="#3ECAF0"/></linearGradient></defs></svg>