<svg width="190" height="53" fill="none" xmlns="http://www.w3.org/2000/svg"><path fill-rule="evenodd" clip-rule="evenodd" d="M74.671 32.34c1.42-1.42 2.103-3.125 2.103-5.114 0-1.99-.682-3.694-2.103-5.057-1.42-1.42-3.125-2.103-5.171-2.103-2.1 0-3.863.682-5.34 2.103-1.42 1.363-2.16 3.068-2.16 5.057 0 1.99.74 3.694 2.16 5.114 1.477 1.365 3.24 2.046 5.34 2.046 2.046 0 3.75-.681 5.171-2.046zM54.045 52.511V12.908h8.466v3.75c.852-2.5 4.205-4.261 8.524-4.261 4.034 0 7.443 1.42 10.114 4.317 2.727 2.841 4.09 6.364 4.09 10.512 0 4.15-1.363 7.671-4.09 10.569-2.67 2.84-6.08 4.261-10.114 4.261-4.32 0-7.672-1.76-8.524-4.261V52.51h-8.466zM89.61 41.547v-28.64h8.466v3.923c1.307-2.9 4.375-4.547 8.296-4.547.568 0 1.307.057 2.216.171v7.955a14.577 14.577 0 00-2.841-.284c-4.83 0-7.67 2.727-7.67 7.443v13.979h-8.468zm31.197-8.979c1.42 1.42 3.183 2.159 5.284 2.159 2.102 0 3.864-.739 5.284-2.16 1.421-1.476 2.161-3.238 2.161-5.34 0-2.104-.74-3.864-2.161-5.285-1.42-1.478-3.182-2.215-5.284-2.215-2.101 0-3.864.737-5.284 2.215-1.421 1.42-2.159 3.181-2.159 5.285 0 2.102.738 3.92 2.159 5.34zm16.535-16.081c3.125 2.898 4.659 6.478 4.659 10.74 0 4.261-1.534 7.84-4.659 10.795-3.126 2.899-6.876 4.375-11.251 4.375-4.431 0-8.181-1.476-11.308-4.375-3.066-2.954-4.602-6.534-4.602-10.795 0-4.262 1.536-7.842 4.602-10.74 3.127-2.954 6.877-4.432 11.308-4.432 4.375 0 8.125 1.478 11.251 4.432zm9.092 25.06v-28.64h8.467v3.581c1.079-2.499 3.976-4.205 7.443-4.205 3.864 0 6.477 1.534 7.784 4.547 1.591-3.013 4.772-4.547 9.546-4.547 6.535 0 10.172 4.432 10.172 11.876v17.388h-8.466V25.182c0-3.353-1.534-5.398-4.262-5.398-2.784 0-4.774 2.33-4.774 5.682v16.08h-8.466V25.183c0-3.353-1.534-5.398-4.261-5.398-2.728 0-4.716 2.33-4.716 5.682v16.08h-8.467z" fill="#000"/><path fill-rule="evenodd" clip-rule="evenodd" d="M0 41.959h41.959V0H0v41.959zm9.616-9.616h22.727V9.616H9.616v22.727z" fill="url(#paint0_linear)"/><defs><linearGradient id="paint0_linear" x1="0" y1="0" x2="41.959" y2="41.959" gradientUnits="userSpaceOnUse"><stop stop-color="#4854A2"/><stop offset="1" stop-color="#772088"/></linearGradient></defs></svg>