<svg width="221" height="82" fill="none" xmlns="http://www.w3.org/2000/svg"><path d="M19.985 75.257h-4.15L.043 32.318h8.242l9.798 28.588C33.183 21.829 67.36 5.287 98.657.1l.922 1.441C79.004 6.382 60.042 14.221 45 29.667l-.404-.115-.576-.058h-1.153l-.576.058-.577.115-.518.173-.519.23-.461.289-.461.345-.807.807-.346.462-.288.46-.23.52-.173.518-.116.576-.057.577v1.152l.057.577.116.576.172.519.058.115a39.22 39.22 0 00-1.21 1.614h-2.133v2.997c-5.879 8.991-10.95 19.884-14.812 33.083z" fill="#1E6EAA"/><path fill-rule="evenodd" clip-rule="evenodd" d="M128.455 55.834h-17.867c.115 2.017.806 3.573 2.074 4.668 1.268 1.095 2.94 1.671 5.072 1.671 2.652 0 4.669-.691 6.052-2.074l2.248 4.438c-2.075 1.67-5.13 2.478-9.222 2.478-3.804 0-6.858-1.153-9.049-3.343-2.19-2.248-3.342-5.36-3.342-9.337 0-3.92 1.21-7.147 3.688-9.568 2.421-2.42 5.36-3.688 8.761-3.688 3.631 0 6.57 1.095 8.76 3.227 2.191 2.19 3.286 4.9 3.286 8.3.057.75-.116 1.787-.461 3.228zM43.557 31.857c.923 0 1.73.346 2.421.98.634.634.98 1.44.98 2.42s-.346 1.73-.98 2.421c-.634.634-1.44.98-2.42.98-.923 0-1.73-.346-2.421-.98-.634-.634-.98-1.44-.98-2.42s.346-1.73.98-2.421c.691-.634 1.44-.98 2.42-.98zm-3.054 14.467h-3.228V41.54h9.107v25.014h-5.88v-20.23zm19.942.057c-1.384 0-2.536.173-3.631 1.441-1.038 1.21-1.556 2.71-1.556 4.496v14.236h-5.822V41.54h5.822v2.305c1.613-1.844 3.803-2.305 6.512-2.305 1.441 0 2.594-.288 3.574.058h.634v-5.072l5.82-2.133v7.262h6.86v4.726h-6.86v10.951c0 1.787.29 3.055.865 3.804.577.75 1.557 1.095 2.94 1.095s2.709-.403 3.919-1.153v5.36c-1.383.462-3.285.692-5.821.692-2.478 0-4.438-.691-5.764-2.132-1.325-1.384-2.017-3.4-2.017-5.995v-12.68c-2.19-.057-2.997.058-5.475.058zm36.886 20.23V64.48c-.806.692-1.96 1.326-3.4 1.787-1.441.518-2.767.749-3.977.749-5.821 0-8.703-3.112-8.703-9.28V41.54h5.821v15.792c0 3.228 1.441 4.784 4.323 4.784 1.326 0 2.536-.346 3.689-1.038 1.152-.691 1.902-1.498 2.247-2.363V41.54h5.822v25.071h-5.822zm13.429-15.158h12.277c-.404-3.63-2.421-5.475-6.052-5.475-3.285 0-5.36 1.844-6.225 5.475z" fill="#1E6EAA"/><path d="M164.015 66.612h-5.936l-3.516-18.444-6.916 18.905h-2.191l-6.858-18.905-3.689 18.444h-5.879l6.917-34.294h3.169l7.435 23.112 7.263-23.112h3.169l7.032 34.294zm17.291-2.536c-.519.864-1.441 1.556-2.767 2.132-1.325.576-2.709.807-4.15.807-2.708 0-4.783-.692-6.339-2.017-1.557-1.326-2.306-3.286-2.306-5.764 0-2.882 1.095-5.187 3.285-6.8 2.191-1.615 5.245-2.422 9.28-2.422.691 0 1.498.116 2.42.346 0-2.94-1.844-4.438-5.59-4.438-2.19 0-4.035.346-5.533 1.095l-1.268-4.553c2.017-.98 4.38-1.44 7.147-1.44 3.803 0 6.628.864 8.414 2.593 1.787 1.729 2.652 5.014 2.652 9.856v5.36c0 3.342.691 5.417 2.017 6.282-.461.864-1.038 1.383-1.614 1.556a7.09 7.09 0 01-2.017.288c-.865 0-1.614-.288-2.248-.922a3.85 3.85 0 01-1.383-1.96zm-.577-9.28c-.979-.173-1.729-.288-2.247-.288-4.611 0-6.917 1.498-6.917 4.553 0 2.248 1.326 3.343 3.92 3.343 3.515 0 5.244-1.729 5.244-5.245v-2.363z" fill="#00AEEF"/><path fill-rule="evenodd" clip-rule="evenodd" d="M201.017 46.266c-1.383 0-2.536.346-3.631 1.556-1.038 1.21-1.556 2.71-1.556 4.496v14.236h-5.822V41.54h5.822v2.305c1.613-1.844 3.804-2.478 6.512-2.478 1.441 0 2.594-.115 3.574.173h1.095v-5.072l5.821-2.132v7.262h6.859v4.726h-6.859v10.95c0 1.787.288 3.055.865 3.804.576.75 1.556 1.095 2.939 1.095s2.709-.403 3.919-1.152v5.36c-1.383.461-3.285.692-5.821.692-2.478 0-4.438-.692-5.763-2.133-1.326-1.383-2.018-3.4-2.018-5.994v-12.68h-5.936z" fill="#00AEEF"/><path d="M39.35 79.464l.52-.922c.115.115.345.23.576.346.23.115.46.173.634.173.288 0 .576-.058.749-.23a.954.954 0 00.288-.692.622.622 0 00-.173-.404c-.115-.115-.288-.23-.519-.403l-.749-.404a1.362 1.362 0 01-.519-.46 1.162 1.162 0 01-.172-.635c0-.519.172-.922.576-1.21a2.39 2.39 0 011.44-.461c.404 0 .865.115 1.442.403l-.461.922c-.346-.288-.692-.46-1.096-.46-.23 0-.46.057-.691.172a.605.605 0 00-.288.519.52.52 0 00.173.403c.115.116.288.23.576.404l.692.403c.23.115.403.288.518.461.116.173.173.404.173.634 0 .577-.23 1.038-.634 1.384-.403.345-.98.518-1.614.518-.46 0-.98-.173-1.44-.46zm10.144.346l.634-3.458c0-.115.058-.288.058-.346 0-.634-.288-.922-.922-.922-.23 0-.461.058-.75.23-.288.116-.46.289-.634.462l-.749 4.092h-.98l1.326-7.724h.98l-.461 2.825c.173-.173.403-.346.691-.52.289-.114.634-.172.923-.172.46 0 .864.115 1.152.403.288.289.404.692.404 1.153 0 .173 0 .346-.058.577l-.634 3.458h-.98v-.058zm4.611-2.017c0-.98.288-1.845.865-2.536.576-.692 1.325-1.038 2.19-1.038.691 0 1.152.173 1.498.52.346.345.519.864.519 1.555 0 .519-.115 1.095-.288 1.614a3.147 3.147 0 01-1.038 1.383c-.46.404-1.037.577-1.729.577-.634 0-1.152-.173-1.498-.577-.346-.288-.519-.807-.519-1.498zm1.038-.058c0 .922.403 1.383 1.152 1.383.576 0 1.038-.288 1.383-.864.346-.577.52-1.21.52-1.96 0-.864-.404-1.325-1.154-1.325-.403 0-.749.115-1.037.403a2.3 2.3 0 00-.634 1.095c-.173.461-.23.865-.23 1.268zm7.722 1.787l-.403 2.42h-.98l1.095-5.993c.058-.289.058-.52.058-.75 0-.23 0-.519-.058-.75l.98-.172c0 .058.058.288.115.692.173-.173.404-.346.692-.52.288-.114.576-.23.865-.23.691 0 1.21.173 1.556.52.346.345.518.864.518 1.498 0 1.037-.288 1.902-.864 2.593-.576.692-1.326 1.038-2.248 1.038-.23 0-.461-.058-.692-.116-.46 0-.576-.115-.634-.23zm.116-.807c.057.115.173.173.346.288.172.058.345.115.518.115.692 0 1.268-.23 1.672-.749.403-.46.576-1.153.576-1.96 0-.46-.115-.806-.346-1.037-.23-.23-.576-.346-1.037-.346-.173 0-.404.058-.692.23a1.644 1.644 0 00-.576.404l-.461 3.055zm7.839.807l-.404 2.42h-.98l1.095-5.993c.058-.289.058-.52.058-.75 0-.23 0-.519-.058-.75l.98-.172c0 .058.058.288.115.692.173-.173.404-.346.692-.52.288-.172.576-.23.865-.23.691 0 1.21.173 1.556.52.346.345.519.864.519 1.498 0 1.037-.289 1.902-.865 2.593-.576.692-1.326 1.038-2.248 1.038-.23 0-.46-.058-.691-.116-.404 0-.52-.115-.634-.23zm.173-.807c.057.115.172.173.345.288.173.058.346.115.52.115.69 0 1.267-.23 1.67-.749.404-.46.577-1.153.577-1.96 0-.46-.115-.806-.346-1.037-.23-.23-.576-.346-1.037-.346-.173 0-.404.058-.692.23a1.656 1.656 0 00-.576.404l-.461 3.055zm8.817-6.513c.174 0 .346.058.462.173a.654.654 0 01.173.461.654.654 0 01-.173.461.654.654 0 01-.461.173.654.654 0 01-.461-.173.654.654 0 01-.173-.46c0-.174.057-.347.173-.462a.654.654 0 01.46-.173zm-1.556 7.608l.807-4.668h-.749l.173-.807h1.671l-.98 5.475h-.922zm8.358 0l.576-3.17c.058-.288.058-.519.058-.692 0-.576-.288-.864-.922-.864-.231 0-.462.057-.75.23-.288.116-.46.289-.634.462l-.691 4.092h-.98l.75-4.15v-.346c0-.346-.059-.634-.116-.922l.922-.173c.115.519.115.75.115.807.404-.519 1.038-.807 1.787-.807.98 0 1.499.519 1.499 1.498 0 .173 0 .404-.058.692l-.576 3.4h-.98v-.057zm4.149 1.498l.462-.691c.634.288 1.152.461 1.556.461.46 0 .807-.058 1.153-.23.288-.173.46-.404.46-.692 0-.173-.057-.288-.172-.346-.116-.115-.288-.173-.52-.23l-.921-.173c-.346-.116-.519-.289-.519-.577 0-.23.288-.46.865-.691h-.173c-.404 0-.75-.173-1.038-.462a1.476 1.476 0 01-.46-1.095c0-.691.23-1.325.69-1.729.462-.46 1.038-.691 1.787-.691.52 0 .923.115 1.21.346l.462-.52.519.577-.52.519c.116.115.174.346.174.634 0 .576-.173 1.095-.461 1.498a2.455 2.455 0 01-1.153.865c-.461.173-.692.346-.692.461 0 .115.058.173.173.173h.461c.865 0 1.268.403 1.268 1.153 0 .576-.288 1.095-.806 1.44-.52.346-1.153.52-1.903.52-.864.114-1.44-.058-1.901-.52zm2.998-6.282c-.404 0-.75.173-.98.461-.23.288-.404.692-.404 1.095 0 .75.288 1.096.865 1.096.403 0 .75-.173 1.037-.577.288-.346.461-.75.461-1.21 0-.288-.057-.519-.23-.634-.23-.173-.461-.23-.75-.23zm12.391-.518l-.173.806c-.23-.172-.576-.288-.98-.288-.634 0-1.152.23-1.498.75-.404.518-.576 1.095-.576 1.844 0 .461.115.807.403 1.037.231.288.519.404.865.404.518 0 .979-.173 1.44-.461l-.115.98c-.461.172-.922.288-1.441.288-.691 0-1.21-.173-1.556-.577-.346-.403-.519-.922-.519-1.556 0-1.037.289-1.902.865-2.536.576-.691 1.326-.98 2.19-.98.346 0 .749.116 1.095.289zm7.608.172l-.692 3.17c0 .116-.057.289-.057.462 0 .518.057 1.037.23 1.498h-.98a2.378 2.378 0 01-.173-.576 2.073 2.073 0 01-.691.46 2.693 2.693 0 01-.98.174c-.519 0-.98-.173-1.268-.461-.288-.346-.461-.75-.461-1.384 0-.98.288-1.902.864-2.65.577-.75 1.326-1.154 2.306-1.154.864 0 1.498.173 1.902.462zm-1.095.577c-.116-.173-.404-.23-.922-.23-.519 0-1.038.287-1.441.864-.404.576-.634 1.268-.634 2.132 0 .75.346 1.095.98 1.095.345 0 .634-.172.922-.518a3.17 3.17 0 00.634-1.326l.461-2.017zm7.665.057a1.106 1.106 0 00-.691-.23c-.346 0-.692.173-.98.461-.288.346-.519.692-.577 1.153l-.576 3.112h-1.037l.979-5.475h.98l-.173.864c.461-.634 1.038-.98 1.729-.98.116 0 .289 0 .577.058l-.231 1.037zm3.862-.23h-.634l.173-.75h.634l.23-1.152 1.095-.404-.346 1.557h1.499l-.173.749h-1.499l-.576 2.709c-.058.23-.058.403-.058.518 0 .52.231.807.75.807.23 0 .518-.057.807-.172l-.058.864c-.288.115-.749.173-1.326.173-.403 0-.691-.115-.922-.346-.23-.23-.346-.576-.346-.98 0-.115 0-.23.058-.346l.692-3.227zm8.184 4.38l.519-.922c.115.115.345.23.576.346.23.115.461.173.634.173.288 0 .576-.058.749-.23a.954.954 0 00.288-.692.619.619 0 00-.173-.404c-.115-.115-.288-.23-.518-.403l-.75-.404a1.36 1.36 0 01-.518-.46 1.156 1.156 0 01-.173-.635c0-.519.173-.922.576-1.21a2.392 2.392 0 011.441-.461c.404 0 .865.115 1.441.403l-.461.922c-.346-.288-.692-.46-1.095-.46-.231 0-.461.057-.692.172a.605.605 0 00-.288.519c0 .173.058.288.173.403.115.116.288.23.576.404l.692.403c.23.115.403.288.519.461.115.173.173.404.173.634 0 .577-.231 1.038-.634 1.384-.404.345-.98.518-1.614.518a2.52 2.52 0 01-1.441-.46zm6.686-1.671c0-.98.288-1.845.864-2.536.577-.692 1.326-1.038 2.191-1.038.691 0 1.152.173 1.498.52.346.345.519.864.519 1.555 0 .519-.115 1.095-.288 1.614a3.152 3.152 0 01-1.038 1.383c-.461.404-1.037.577-1.729.577-.634 0-1.153-.173-1.498-.577-.346-.288-.519-.807-.519-1.498zm1.037-.058c0 .922.404 1.383 1.153 1.383.576 0 1.037-.288 1.383-.864.346-.577.519-1.21.519-1.96 0-.864-.403-1.325-1.153-1.325-.403 0-.749.115-1.037.403a2.3 2.3 0 00-.634 1.095 3.484 3.484 0 00-.231 1.268zm11.008-4.726c-.288-.115-.461-.115-.576-.115-.634 0-1.037.518-1.153 1.498h1.268l-.057.692h-1.268l-.865 5.187a1.633 1.633 0 01-.691 1.153c-.346.288-.807.46-1.326.576l-.115-.576c.23-.058.403-.173.634-.404.23-.23.346-.46.403-.691l.922-5.187h-.749l.115-.692h.75c.288-1.499 1.037-2.248 2.247-2.248a1.6 1.6 0 01.75.173l-.289.634zm3.401 2.075h-.634l.173-.75h.634l.231-1.152 1.095-.404-.346 1.557h1.498l-.172.749h-1.499l-.576 2.709c-.058.23-.058.403-.058.518 0 .52.231.807.749.807.231 0 .519-.057.807-.172l-.057.864c-.289.115-.75.173-1.326.173-.404 0-.692-.115-.922-.346-.231-.23-.346-.576-.346-.98 0-.115 0-.23.058-.346l.691-3.227zm10.259 4.841h-.231l-1.037-3.573-2.19 3.573h-.231l-1.037-5.59h.98l.576 3.458 2.017-3.458h.231l.98 3.516 1.729-3.516h.979c-1.037 2.19-2.017 4.092-2.766 5.59zm10.029-5.245l-.692 3.17c0 .116-.057.289-.057.462 0 .518.057 1.037.23 1.498h-.98a2.343 2.343 0 01-.172-.576 2.078 2.078 0 01-.692.46 2.693 2.693 0 01-.98.174c-.519 0-.98-.173-1.268-.461-.288-.346-.461-.75-.461-1.384 0-.98.288-1.902.865-2.65.576-.75 1.325-1.154 2.305-1.154.865 0 1.499.173 1.902.462zm-1.095.577c-.115-.173-.404-.23-.922-.23-.519 0-1.038.287-1.441.864-.404.576-.634 1.268-.634 2.132 0 .75.346 1.095.98 1.095.345 0 .634-.172.922-.518a3.16 3.16 0 00.634-1.326l.461-2.017zm7.665.057a1.106 1.106 0 00-.691-.23c-.346 0-.692.173-.98.461-.288.346-.519.692-.577 1.153l-.576 3.112h-.98l.98-5.475h.98l-.173.864c.461-.634 1.037-.98 1.729-.98.115 0 .288 0 .576.058l-.288 1.037zm3.862 1.902c-.058.173-.058.346-.058.462 0 .46.116.806.404 1.037.23.23.576.346 1.037.346.404 0 .807-.173 1.211-.461l-.116.98c-.518.172-1.037.288-1.441.288-1.383 0-2.132-.807-2.132-2.363 0-.922.288-1.73.864-2.363.577-.634 1.326-.98 2.248-.98.519 0 .98.115 1.326.346.346.23.461.576.461.98 0 .576-.231 1.094-.749 1.383-.519.345-1.095.518-1.845.518-.461.116-.922 0-1.21-.172zm.173-.691c.23.115.576.173.922.173.519 0 .98-.058 1.326-.23.345-.174.518-.404.518-.75 0-.404-.288-.634-.864-.634-.98-.058-1.556.461-1.902 1.44z" fill="#CBCFCE"/></svg>