<svg width="220" height="43" fill="none" xmlns="http://www.w3.org/2000/svg"><path fill-rule="evenodd" clip-rule="evenodd" d="M.594 4.088C1.619 1.708 4.182.001 6.855.001H67.42c1.758-.035 3.516.605 4.797 1.742a6.708 6.708 0 012.27 5.117v22.53c-.036 3.376-3.075 6.432-6.554 6.503-7.36.035-14.72 0-22.08 0 .988 2.38 1.977 4.726 2.966 7.107-4.394-2.345-8.715-4.762-13.146-7.072-9.667-.07-19.37 0-29.074-.035C3.12 35.786.08 32.766.044 29.39c-.036-7.356 0-14.712-.036-22.033 0-1.101.11-2.238.586-3.269z" fill="#945C87"/><path fill-rule="evenodd" clip-rule="evenodd" d="M30.181 4.623c1.099-1.137 3.222-.782 4.065.533.439.675.476 1.6.11 2.31-1.538 2.985-2.198 6.29-2.783 9.523-.696 4.23-1.282 8.53-1.062 12.829.073 1.102-.476 2.416-1.685 2.7-1.135.25-2.197-.497-2.93-1.279-3.295-3.447-5.162-7.889-6.517-12.33a792.417 792.417 0 00-4.028 7.817c-.915 1.777-1.904 3.59-3.369 5.01-.622.605-1.684 1.138-2.49.534-1.208-1.03-1.501-2.665-2.014-4.051-1.94-6.503-3.039-13.22-4.174-19.9-.256-1.102.22-2.452 1.355-2.879.915-.32 2.124-.39 2.893.285.549.462.695 1.208.805 1.883.806 5.188 1.721 10.341 3.04 15.423 2.197-4.051 4.393-8.103 6.59-12.19.33-.603.733-1.207 1.319-1.563.805-.497 1.977-.462 2.673.249.55.569.769 1.386.915 2.132.66 3.34 1.538 6.68 2.82 9.844.55-4.798 1.245-9.666 3.039-14.18.403-.959.769-1.918 1.428-2.7zm12.413 2.594c2.38-.284 4.944.498 6.555 2.239 1.318 1.457 2.05 3.34 2.307 5.224.402 3.233-.22 6.645-1.831 9.523-.916 1.635-2.087 3.234-3.772 4.194-2.453 1.457-5.749 1.279-8.129-.25-1.904-1.278-2.966-3.41-3.405-5.543-.879-4.868.622-10.27 4.394-13.646a7.272 7.272 0 013.881-1.74zm.476 4.975c-1.135.355-1.867 1.386-2.49 2.31-1.538 2.416-1.977 5.58-.732 8.173.33.675.842 1.422 1.684 1.564.88.142 1.685-.355 2.307-.889 1.392-1.172 2.087-2.914 2.454-4.655.366-1.954.183-4.122-.989-5.828-.476-.64-1.428-.924-2.234-.675zM61.6 7.217c2.307-.284 4.833.427 6.444 2.097 1.465 1.528 2.234 3.553 2.454 5.614.33 3.128-.257 6.397-1.794 9.169-.916 1.67-2.124 3.305-3.882 4.3-2.343 1.386-5.492 1.243-7.836-.107-1.575-.924-2.636-2.488-3.259-4.158-1.648-5.081-.256-11.052 3.552-14.89 1.245-1.065 2.746-1.847 4.32-2.025zm.512 4.975c-1.245.427-1.977 1.6-2.636 2.63-1.392 2.38-1.758 5.472-.476 7.995.33.711.952 1.386 1.794 1.422.916.035 1.721-.533 2.38-1.137 1.428-1.35 2.05-3.27 2.27-5.153.22-1.741-.073-3.625-1.135-5.117-.439-.604-1.391-.889-2.197-.64z" fill="#fff"/><path fill-rule="evenodd" clip-rule="evenodd" d="M87.01 7.89a14.369 14.369 0 016.152.072v4.797c-1.648-.39-3.515-.746-5.09 0-1.904.924-2.966 3.02-2.966 5.01-.11 1.99.586 4.23 2.417 5.367 1.684 1.066 3.845.852 5.676.355v4.797c-2.454.675-5.127.604-7.507-.248-2.856-1.031-5.126-3.447-6.005-6.29a12.924 12.924 0 01-.22-6.681c.843-3.518 3.918-6.397 7.543-7.178zm14.867-.248c2.49-.285 5.2.106 7.214 1.634 1.94 1.457 2.892 3.838 3.259 6.113.329 2.523.256 5.152-.55 7.569-.695 2.06-2.123 3.98-4.174 4.94-2.087.959-4.541 1.03-6.774.532-2.05-.462-3.882-1.776-4.907-3.589-1.428-2.416-1.684-5.295-1.574-8.03.11-2.346.732-4.798 2.343-6.61 1.318-1.458 3.222-2.346 5.163-2.56zm.769 4.584c-1.062.249-1.684 1.28-1.941 2.239-.512 1.919-.439 3.909-.293 5.863.147 1.066.257 2.203 1.026 3.056 1.025 1.137 3.112.995 4.028-.177.622-.747.805-1.706.915-2.63.22-1.635.256-3.305 0-4.94-.183-.995-.476-2.025-1.208-2.771-.659-.64-1.648-.853-2.527-.64zm97.658-4.264c2.124-.533 4.358-.462 6.482-.036.036 1.6 0 3.198.036 4.833-1.611-.39-3.405-.746-4.98-.071-1.831.817-2.929 2.7-3.076 4.584-.219 2.132.367 4.549 2.307 5.792 1.685 1.138 3.882.924 5.749.391-.036 1.6.037 3.234-.036 4.833-2.6.64-5.456.569-7.91-.462-2.709-1.137-4.833-3.553-5.602-6.325-.586-2.132-.659-4.407-.11-6.574.806-3.34 3.698-6.077 7.14-6.965zm-84.695.142h7.067a380.577 380.577 0 012.38 11.158c.659-3.767 1.574-7.463 2.49-11.158h7.25c.952 6.716 1.867 13.432 2.783 20.113h-5.529c-.513-4.584-.952-9.204-1.502-13.788-1.135 4.584-2.306 9.204-3.442 13.788h-3.771c-1.209-4.584-2.38-9.204-3.625-13.823-.476 4.584-.952 9.204-1.428 13.823h-5.31c.879-6.68 1.758-13.397 2.637-20.113zm25.339 0h7.067a377.341 377.341 0 012.38 11.158c.696-3.731 1.575-7.463 2.49-11.158h7.214c.952 6.716 1.867 13.432 2.782 20.113h-5.529c-.512-4.584-.988-9.204-1.501-13.788-1.135 4.584-2.27 9.204-3.442 13.788h-3.772c-1.208-4.62-2.416-9.204-3.625-13.823-.476 4.62-.952 9.204-1.428 13.823h-5.309a3398.36 3398.36 0 002.673-20.113zm23.545.07c3.771-.07 7.579 0 11.351-.035v4.3c-1.904.036-3.808 0-5.712 0v3.696h4.943v4.158h-4.943v3.695h5.749v4.3h-11.352c-.036-6.716.037-13.397-.036-20.113zm12.962-.07c2.38 0 4.724-.036 7.104 0 2.234.07 4.614.604 6.261 2.132 1.502 1.35 2.014 3.59 1.429 5.473-.476 1.527-1.648 2.771-3.113 3.447 1.465 3.02 2.966 6.04 4.467 9.061h-5.895c-1.538-3.091-3.039-6.183-4.614-9.24-.036 3.092 0 6.184 0 9.24h-5.602c-.037-6.68-.037-13.397-.037-20.113zm5.603 3.873v4.797c1.025-.07 2.123-.106 2.966-.71.988-.71.878-2.168.256-3.092-.769-.888-2.124-.888-3.222-.995zm25.339-3.838h11.315v4.3h-5.749v3.696h4.943v4.158h-4.943v3.695h5.785v4.3h-11.351c-.037-6.752 0-13.468 0-20.149z" fill="#000"/></svg>